{"title":"WWE.Royal.Rumble.2016.PPV.WEBRip.h264-WD","uid":13301352,"size":2447462023,"categoryP":"video","categoryS":"tv_shows","magnet":"?xt=urn:btih:df35dbdfbd9889dee407e647045938e5f661fa15&amp;dn=WWE.Royal.Rumble.2016.PPV.WEBRip.h264-WD&amp;tr=udp%3A%2F%2Ftracker.leechers-paradise.org%3A6969&amp;tr=udp%3A%2F%2Fzer0day.ch%3A1337&amp;tr=udp%3A%2F%2Fopen.demonii.com%3A1337&amp;tr=udp%3A%2F%2Ftracker.coppersurfer.tk%3A6969&amp;tr=udp%3A%2F%2Fexodus.desync.com%3A6969","seeders":2,"leechers":0,"uploader":"tykoon123","files":1,"time":1453699266,"description":"http://imgh.us/WWE_Royal_Rumble_2016_2nd_Promotional_Poster.jpeg\r\n\r\nFormat                                   : MPEG-4\r\nFormat profile                           : Base Media\r\nCodec ID                                 : isom\r\nFile size                                : 2.28 GiB\r\nDuration                                 : 3h 0mn\r\nOverall bit rate mode                    : Variable\r\nOverall bit rate                         : 1 806 Kbps\r\nWriting application                      : Lavf57.20.100\r\n\r\nVideo\r\nID                                       : 1\r\nFormat                                   : AVC\r\nFormat/Info                              : Advanced Video Codec\r\nFormat profile                           :   \r\nFormat settings, CABAC                   : Yes\r\nFormat settings, ReFrames                : 4 frames\r\nCodec ID                                 : avc1\r\nCodec ID/Info                            : Advanced Video Coding\r\nDuration                                 : 3h 0mn\r\nBit rate mode                            : Constant\r\nBit rate                                 : 1 704 Kbps\r\nWidth                                    : 896 pixels\r\nHeight                                   : 504 pixels\r\nDisplay aspect ratio                     : 16:9\r\nFrame rate mode                          : Constant\r\nFrame rate                               : 29.970 fps\r\nColor space                              : YUV\r\nChroma subsampling                       : 4:2:0\r\nBit depth                                : 8 bits\r\nScan type                                : Progressive\r\nBits/(Pixel*Frame)                       : 0.126\r\nStream size                              : 2.15 GiB (94%)\r\n\r\nAudio\r\nID                                       : 2\r\nFormat                                   : AAC\r\nFormat/Info                              : Advanced Audio Codec\r\nFormat profile                           : LC\r\nCodec ID                                 : 40\r\nDuration                                 : 3h 0mn\r\nBit rate mode                            : Variable\r\nBit rate                                 : 93.5 Kbps\r\nMaximum bit rate                         : 96.0 Kbps\r\nChannel(s)                               : 2 channels\r\nChannel positions                        : Front: L R\r\nSampling rate                            : 48.0 KHz\r\nCompression mode                         : Lossy\r\nDelay relative to video                  : 67ms\r\nStream size                              : 121 MiB (5%)","torrent":{"xt":"urn:btih:df35dbdfbd9889dee407e647045938e5f661fa15","amp;dn":"WWE.Royal.Rumble.2016.PPV.WEBRip.h264-WD","amp;tr":["udp%3A%2F%2Ftracker.leechers-paradise.org%3A6969","udp%3A%2F%2Fzer0day.ch%3A1337","udp%3A%2F%2Fopen.demonii.com%3A1337","udp%3A%2F%2Ftracker.coppersurfer.tk%3A6969","udp%3A%2F%2Fexodus.desync.com%3A6969"],"infoHash":"df35dbdfbd9889dee407e647045938e5f661fa15","infoHashBuffer":{"type":"Buffer","data":[223,53,219,223,189,152,137,222,228,7,230,71,4,89,56,229,246,97,250,21]},"announce":[],"urlList":[]}}